<?xml version="1.0" encoding="UTF-8" standalone="no"?>
<!DOCTYPE svg PUBLIC "-//W3C//DTD SVG 1.1//EN"
 "http://www.w3.org/Graphics/SVG/1.1/DTD/svg11.dtd">
<!-- Generated by graphviz version 15.1.0 (20260618.0150)
 -->
<!-- Title: G Pages: 1 -->
<svg width="1628pt" height="522pt"
 viewBox="0.00 0.00 1628.00 522.00" xmlns="http://www.w3.org/2000/svg" xmlns:xlink="http://www.w3.org/1999/xlink">
<g id="graph0" class="graph" transform="scale(1 1) rotate(0) translate(4 518)">
<title>G</title>
<polygon fill="white" stroke="none" points="-4,4 -4,-518 1624.25,-518 1624.25,4 -4,4"/>
<!-- data.aws_ami.ubuntu -->
<g id="node1" class="node">
<title>data.aws_ami.ubuntu</title>
<polygon fill="none" stroke="black" points="1122,-406 974,-406 974,-370 1122,-370 1122,-406"/>
<text xml:space="preserve" text-anchor="middle" x="1048" y="-383.32" font-family="sans-serif" font-size="14.00">data.aws_ami.ubuntu</text>
</g>
<!-- aws_db_instance.rds_db -->
<g id="node2" class="node">
<title>aws_db_instance.rds_db</title>
<polygon fill="none" stroke="black" points="1131,-244 965,-244 965,-208 1131,-208 1131,-244"/>
<text xml:space="preserve" text-anchor="middle" x="1048" y="-221.32" font-family="sans-serif" font-size="14.00">aws_db_instance.rds_db</text>
</g>
<!-- aws_security_group.rds_sg -->
<g id="node14" class="node">
<title>aws_security_group.rds_sg</title>
<polygon fill="none" stroke="black" points="649.62,-244 467.88,-244 467.88,-208 649.62,-208 649.62,-244"/>
<text xml:space="preserve" text-anchor="middle" x="558.75" y="-221.32" font-family="sans-serif" font-size="14.00">aws_security_group.rds_sg</text>
</g>
<!-- aws_db_instance.rds_db&#45;&gt;aws_security_group.rds_sg -->
<g id="edge1" class="edge">
<title>aws_db_instance.rds_db&#45;&gt;aws_security_group.rds_sg</title>
<path fill="none" stroke="black" d="M964.62,-226C880.95,-226 751.24,-226 661.27,-226"/>
<polygon fill="black" stroke="black" points="661.47,-222.5 651.47,-226 661.47,-229.5 661.47,-222.5"/>
</g>
<!-- aws_iam_instance_profile.webserver_profile -->
<g id="node3" class="node">
<title>aws_iam_instance_profile.webserver_profile</title>
<polygon fill="none" stroke="black" points="1191.75,-514 904.25,-514 904.25,-478 1191.75,-478 1191.75,-514"/>
<text xml:space="preserve" text-anchor="middle" x="1048" y="-491.32" font-family="sans-serif" font-size="14.00">aws_iam_instance_profile.webserver_profile</text>
</g>
<!-- aws_iam_role.webserver_role -->
<g id="node5" class="node">
<title>aws_iam_role.webserver_role</title>
<polygon fill="none" stroke="black" points="658.62,-379 458.88,-379 458.88,-343 658.62,-343 658.62,-379"/>
<text xml:space="preserve" text-anchor="middle" x="558.75" y="-356.32" font-family="sans-serif" font-size="14.00">aws_iam_role.webserver_role</text>
</g>
<!-- aws_iam_instance_profile.webserver_profile&#45;&gt;aws_iam_role.webserver_role -->
<g id="edge2" class="edge">
<title>aws_iam_instance_profile.webserver_profile&#45;&gt;aws_iam_role.webserver_role</title>
<path fill="none" stroke="black" d="M910.74,-477.57C897.33,-475.01 883.98,-472.16 871.25,-469 779.67,-446.29 676.86,-408.04 615.27,-383.69"/>
<polygon fill="black" stroke="black" points="616.62,-380.46 606.03,-380.02 614.03,-386.96 616.62,-380.46"/>
</g>
<!-- aws_iam_policy.webserver_allow_s3_policy -->
<g id="node4" class="node">
<title>aws_iam_policy.webserver_allow_s3_policy</title>
<polygon fill="none" stroke="black" points="699.12,-325 418.38,-325 418.38,-289 699.12,-289 699.12,-325"/>
<text xml:space="preserve" text-anchor="middle" x="558.75" y="-302.32" font-family="sans-serif" font-size="14.00">aws_iam_policy.webserver_allow_s3_policy</text>
</g>
<!-- aws_s3_bucket.webserver_s3_bucket -->
<g id="node9" class="node">
<title>aws_s3_bucket.webserver_s3_bucket</title>
<polygon fill="none" stroke="black" points="246.25,-117 0,-117 0,-81 246.25,-81 246.25,-117"/>
<text xml:space="preserve" text-anchor="middle" x="123.12" y="-94.33" font-family="sans-serif" font-size="14.00">aws_s3_bucket.webserver_s3_bucket</text>
</g>
<!-- aws_iam_policy.webserver_allow_s3_policy&#45;&gt;aws_s3_bucket.webserver_s3_bucket -->
<g id="edge3" class="edge">
<title>aws_iam_policy.webserver_allow_s3_policy&#45;&gt;aws_s3_bucket.webserver_s3_bucket</title>
<path fill="none" stroke="black" d="M417.98,-295.55C372.79,-287.75 323.69,-274.73 282.25,-253 222.9,-221.88 170.85,-161.42 143.82,-126.22"/>
<polygon fill="black" stroke="black" points="146.91,-124.51 138.1,-118.64 141.33,-128.73 146.91,-124.51"/>
</g>
<!-- aws_iam_role_policy_attachment.attach_policy -->
<g id="node6" class="node">
<title>aws_iam_role_policy_attachment.attach_policy</title>
<polygon fill="none" stroke="black" points="1200.38,-352 895.62,-352 895.62,-316 1200.38,-316 1200.38,-352"/>
<text xml:space="preserve" text-anchor="middle" x="1048" y="-329.32" font-family="sans-serif" font-size="14.00">aws_iam_role_policy_attachment.attach_policy</text>
</g>
<!-- aws_iam_role_policy_attachment.attach_policy&#45;&gt;aws_iam_policy.webserver_allow_s3_policy -->
<g id="edge4" class="edge">
<title>aws_iam_role_policy_attachment.attach_policy&#45;&gt;aws_iam_policy.webserver_allow_s3_policy</title>
<path fill="none" stroke="black" d="M895.17,-325.59C836.39,-322.33 769.27,-318.61 710.59,-315.36"/>
<polygon fill="black" stroke="black" points="711.05,-311.88 700.87,-314.82 710.66,-318.87 711.05,-311.88"/>
</g>
<!-- aws_iam_role_policy_attachment.attach_policy&#45;&gt;aws_iam_role.webserver_role -->
<g id="edge5" class="edge">
<title>aws_iam_role_policy_attachment.attach_policy&#45;&gt;aws_iam_role.webserver_role</title>
<path fill="none" stroke="black" d="M895.17,-342.41C822.43,-346.44 736.91,-351.18 670.42,-354.87"/>
<polygon fill="black" stroke="black" points="670.38,-351.36 660.59,-355.41 670.77,-358.35 670.38,-351.36"/>
</g>
<!-- aws_instance.webserver -->
<g id="node7" class="node">
<title>aws_instance.webserver</title>
<polygon fill="none" stroke="black" points="1523.5,-406 1357.5,-406 1357.5,-370 1523.5,-370 1523.5,-406"/>
<text xml:space="preserve" text-anchor="middle" x="1440.5" y="-383.32" font-family="sans-serif" font-size="14.00">aws_instance.webserver</text>
</g>
<!-- aws_instance.webserver&#45;&gt;data.aws_ami.ubuntu -->
<g id="edge6" class="edge">
<title>aws_instance.webserver&#45;&gt;data.aws_ami.ubuntu</title>
<path fill="none" stroke="black" d="M1357.16,-388C1291.48,-388 1199.83,-388 1133.57,-388"/>
<polygon fill="black" stroke="black" points="1133.85,-384.5 1123.85,-388 1133.85,-391.5 1133.85,-384.5"/>
</g>
<!-- aws_instance.webserver&#45;&gt;aws_db_instance.rds_db -->
<g id="edge7" class="edge">
<title>aws_instance.webserver&#45;&gt;aws_db_instance.rds_db</title>
<path fill="none" stroke="black" d="M1417.33,-369.66C1380.09,-339.91 1301.5,-281.61 1224.75,-253 1198.82,-243.33 1169.5,-237.13 1142.34,-233.14"/>
<polygon fill="black" stroke="black" points="1143.13,-229.72 1132.75,-231.82 1142.18,-236.65 1143.13,-229.72"/>
</g>
<!-- aws_instance.webserver&#45;&gt;aws_iam_instance_profile.webserver_profile -->
<g id="edge8" class="edge">
<title>aws_instance.webserver&#45;&gt;aws_iam_instance_profile.webserver_profile</title>
<path fill="none" stroke="black" d="M1398.37,-406.46C1355.74,-424.88 1286.8,-452.72 1224.75,-469 1216.15,-471.26 1207.27,-473.35 1198.26,-475.28"/>
<polygon fill="black" stroke="black" points="1197.8,-471.8 1188.72,-477.25 1199.22,-478.65 1197.8,-471.8"/>
</g>
<!-- aws_key_pair.deployer -->
<g id="node8" class="node">
<title>aws_key_pair.deployer</title>
<polygon fill="none" stroke="black" points="1124.62,-460 971.38,-460 971.38,-424 1124.62,-424 1124.62,-460"/>
<text xml:space="preserve" text-anchor="middle" x="1048" y="-437.32" font-family="sans-serif" font-size="14.00">aws_key_pair.deployer</text>
</g>
<!-- aws_instance.webserver&#45;&gt;aws_key_pair.deployer -->
<g id="edge9" class="edge">
<title>aws_instance.webserver&#45;&gt;aws_key_pair.deployer</title>
<path fill="none" stroke="black" d="M1357.16,-399.39C1292.33,-408.35 1202.19,-420.82 1136.14,-429.95"/>
<polygon fill="black" stroke="black" points="1135.86,-426.46 1126.43,-431.29 1136.82,-433.39 1135.86,-426.46"/>
</g>
<!-- aws_security_group.webserver_sg -->
<g id="node15" class="node">
<title>aws_security_group.webserver_sg</title>
<polygon fill="none" stroke="black" points="1161.38,-190 934.62,-190 934.62,-154 1161.38,-154 1161.38,-190"/>
<text xml:space="preserve" text-anchor="middle" x="1048" y="-167.32" font-family="sans-serif" font-size="14.00">aws_security_group.webserver_sg</text>
</g>
<!-- aws_instance.webserver&#45;&gt;aws_security_group.webserver_sg -->
<g id="edge10" class="edge">
<title>aws_instance.webserver&#45;&gt;aws_security_group.webserver_sg</title>
<path fill="none" stroke="black" d="M1407.24,-369.63C1369.05,-346.77 1305.06,-304.85 1260.75,-257 1240.14,-234.74 1250.06,-215.72 1224.75,-199 1209.21,-188.73 1191.24,-181.81 1172.84,-177.22"/>
<polygon fill="black" stroke="black" points="1173.66,-173.81 1163.14,-175.04 1172.13,-180.64 1173.66,-173.81"/>
</g>
<!-- aws_s3_bucket_policy.allow_public_folder -->
<g id="node10" class="node">
<title>aws_s3_bucket_policy.allow_public_folder</title>
<polygon fill="none" stroke="black" points="1183.5,-98 912.5,-98 912.5,-62 1183.5,-62 1183.5,-98"/>
<text xml:space="preserve" text-anchor="middle" x="1048" y="-75.33" font-family="sans-serif" font-size="14.00">aws_s3_bucket_policy.allow_public_folder</text>
</g>
<!-- aws_s3_bucket_public_access_block.webserver_s3_bucket_public_access -->
<g id="node11" class="node">
<title>aws_s3_bucket_public_access_block.webserver_s3_bucket_public_access</title>
<polygon fill="none" stroke="black" points="792.12,-144 325.38,-144 325.38,-108 792.12,-108 792.12,-144"/>
<text xml:space="preserve" text-anchor="middle" x="558.75" y="-121.33" font-family="sans-serif" font-size="14.00">aws_s3_bucket_public_access_block.webserver_s3_bucket_public_access</text>
</g>
<!-- aws_s3_bucket_policy.allow_public_folder&#45;&gt;aws_s3_bucket_public_access_block.webserver_s3_bucket_public_access -->
<g id="edge11" class="edge">
<title>aws_s3_bucket_policy.allow_public_folder&#45;&gt;aws_s3_bucket_public_access_block.webserver_s3_bucket_public_access</title>
<path fill="none" stroke="black" d="M912.24,-92.72C867.3,-96.97 816.13,-101.8 766.98,-106.44"/>
<polygon fill="black" stroke="black" points="766.67,-102.95 757.05,-107.37 767.33,-109.92 766.67,-102.95"/>
</g>
<!-- aws_s3_bucket_public_access_block.webserver_s3_bucket_public_access&#45;&gt;aws_s3_bucket.webserver_s3_bucket -->
<g id="edge12" class="edge">
<title>aws_s3_bucket_public_access_block.webserver_s3_bucket_public_access&#45;&gt;aws_s3_bucket.webserver_s3_bucket</title>
<path fill="none" stroke="black" d="M325.07,-111.51C302.16,-110.09 279.5,-108.67 258.09,-107.34"/>
<polygon fill="black" stroke="black" points="258.39,-103.85 248.2,-106.73 257.96,-110.84 258.39,-103.85"/>
</g>
<!-- aws_s3_bucket_server_side_encryption_configuration.webserver_s3_bucket_encryption -->
<g id="node12" class="node">
<title>aws_s3_bucket_server_side_encryption_configuration.webserver_s3_bucket_encryption</title>
<polygon fill="none" stroke="black" points="835.25,-90 282.25,-90 282.25,-54 835.25,-54 835.25,-90"/>
<text xml:space="preserve" text-anchor="middle" x="558.75" y="-67.33" font-family="sans-serif" font-size="14.00">aws_s3_bucket_server_side_encryption_configuration.webserver_s3_bucket_encryption</text>
</g>
<!-- aws_s3_bucket_server_side_encryption_configuration.webserver_s3_bucket_encryption&#45;&gt;aws_s3_bucket.webserver_s3_bucket -->
<g id="edge13" class="edge">
<title>aws_s3_bucket_server_side_encryption_configuration.webserver_s3_bucket_encryption&#45;&gt;aws_s3_bucket.webserver_s3_bucket</title>
<path fill="none" stroke="black" d="M281.9,-89.18C273.71,-89.69 265.64,-90.19 257.74,-90.68"/>
<polygon fill="black" stroke="black" points="257.57,-87.18 247.81,-91.3 258.01,-94.17 257.57,-87.18"/>
</g>
<!-- aws_s3_bucket_versioning.webserver_s3_bucket_versioning -->
<g id="node13" class="node">
<title>aws_s3_bucket_versioning.webserver_s3_bucket_versioning</title>
<polygon fill="none" stroke="black" points="750.88,-36 366.62,-36 366.62,0 750.88,0 750.88,-36"/>
<text xml:space="preserve" text-anchor="middle" x="558.75" y="-13.32" font-family="sans-serif" font-size="14.00">aws_s3_bucket_versioning.webserver_s3_bucket_versioning</text>
</g>
<!-- aws_s3_bucket_versioning.webserver_s3_bucket_versioning&#45;&gt;aws_s3_bucket.webserver_s3_bucket -->
<g id="edge14" class="edge">
<title>aws_s3_bucket_versioning.webserver_s3_bucket_versioning&#45;&gt;aws_s3_bucket.webserver_s3_bucket</title>
<path fill="none" stroke="black" d="M366.42,-30.97C338.03,-34.56 309.26,-39.15 282.25,-45 247.4,-52.55 209.57,-65.3 179.65,-76.51"/>
<polygon fill="black" stroke="black" points="178.52,-73.2 170.42,-80.02 181.01,-79.74 178.52,-73.2"/>
</g>
<!-- aws_vpc_security_group_egress_rule.allow_egress -->
<g id="node16" class="node">
<title>aws_vpc_security_group_egress_rule.allow_egress</title>
<polygon fill="none" stroke="black" points="1604.12,-248 1276.88,-248 1276.88,-212 1604.12,-212 1604.12,-248"/>
<text xml:space="preserve" text-anchor="middle" x="1440.5" y="-225.32" font-family="sans-serif" font-size="14.00">aws_vpc_security_group_egress_rule.allow_egress</text>
</g>
<!-- aws_vpc_security_group_egress_rule.allow_egress&#45;&gt;aws_security_group.webserver_sg -->
<g id="edge15" class="edge">
<title>aws_vpc_security_group_egress_rule.allow_egress&#45;&gt;aws_security_group.webserver_sg</title>
<path fill="none" stroke="black" d="M1315.14,-211.53C1269.66,-204.77 1218.24,-197.14 1172.81,-190.39"/>
<polygon fill="black" stroke="black" points="1173.6,-186.97 1163.19,-188.96 1172.57,-193.89 1173.6,-186.97"/>
</g>
<!-- aws_vpc_security_group_egress_rule.allow_rds_egress -->
<g id="node17" class="node">
<title>aws_vpc_security_group_egress_rule.allow_rds_egress</title>
<polygon fill="none" stroke="black" points="1224.75,-298 871.25,-298 871.25,-262 1224.75,-262 1224.75,-298"/>
<text xml:space="preserve" text-anchor="middle" x="1048" y="-275.32" font-family="sans-serif" font-size="14.00">aws_vpc_security_group_egress_rule.allow_rds_egress</text>
</g>
<!-- aws_vpc_security_group_egress_rule.allow_rds_egress&#45;&gt;aws_security_group.rds_sg -->
<g id="edge16" class="edge">
<title>aws_vpc_security_group_egress_rule.allow_rds_egress&#45;&gt;aws_security_group.rds_sg</title>
<path fill="none" stroke="black" d="M880.34,-261.53C807.54,-253.46 724.53,-244.26 661.22,-237.25"/>
<polygon fill="black" stroke="black" points="661.87,-233.8 651.54,-236.17 661.1,-240.75 661.87,-233.8"/>
</g>
<!-- aws_vpc_security_group_ingress_rule.allow_ingress -->
<g id="node18" class="node">
<title>aws_vpc_security_group_ingress_rule.allow_ingress</title>
<polygon fill="none" stroke="black" points="1607.12,-194 1273.88,-194 1273.88,-158 1607.12,-158 1607.12,-194"/>
<text xml:space="preserve" text-anchor="middle" x="1440.5" y="-171.32" font-family="sans-serif" font-size="14.00">aws_vpc_security_group_ingress_rule.allow_ingress</text>
</g>
<!-- aws_vpc_security_group_ingress_rule.allow_ingress&#45;&gt;aws_security_group.webserver_sg -->
<g id="edge17" class="edge">
<title>aws_vpc_security_group_ingress_rule.allow_ingress&#45;&gt;aws_security_group.webserver_sg</title>
<path fill="none" stroke="black" d="M1273.61,-174.3C1239.88,-173.96 1204.96,-173.6 1172.99,-173.27"/>
<polygon fill="black" stroke="black" points="1173.36,-169.77 1163.33,-173.17 1173.29,-176.77 1173.36,-169.77"/>
</g>
<!-- aws_vpc_security_group_ingress_rule.allow_rds_ingress -->
<g id="node19" class="node">
<title>aws_vpc_security_group_ingress_rule.allow_rds_ingress</title>
<polygon fill="none" stroke="black" points="1620.25,-140 1260.75,-140 1260.75,-104 1620.25,-104 1620.25,-140"/>
<text xml:space="preserve" text-anchor="middle" x="1440.5" y="-117.33" font-family="sans-serif" font-size="14.00">aws_vpc_security_group_ingress_rule.allow_rds_ingress</text>
</g>
<!-- aws_vpc_security_group_ingress_rule.allow_rds_ingress&#45;&gt;aws_security_group.rds_sg -->
<g id="edge18" class="edge">
<title>aws_vpc_security_group_ingress_rule.allow_rds_ingress&#45;&gt;aws_security_group.rds_sg</title>
<path fill="none" stroke="black" d="M1260.38,-119.48C1148.05,-120.31 1000.53,-125.8 871.25,-145 859.62,-146.73 728.65,-181.19 640.28,-204.6"/>
<polygon fill="black" stroke="black" points="639.42,-201.21 630.65,-207.16 641.21,-207.98 639.42,-201.21"/>
</g>
<!-- aws_vpc_security_group_ingress_rule.allow_rds_ingress&#45;&gt;aws_security_group.webserver_sg -->
<g id="edge19" class="edge">
<title>aws_vpc_security_group_ingress_rule.allow_rds_ingress&#45;&gt;aws_security_group.webserver_sg</title>
<path fill="none" stroke="black" d="M1295.2,-140.48C1255.06,-145.62 1211.83,-151.15 1172.96,-156.13"/>
<polygon fill="black" stroke="black" points="1172.57,-152.65 1163.09,-157.39 1173.46,-159.59 1172.57,-152.65"/>
</g>
</g>
</svg>
