<?xml version="1.0" encoding="UTF-8" standalone="no"?>
<!DOCTYPE svg PUBLIC "-//W3C//DTD SVG 1.1//EN"
 "http://www.w3.org/Graphics/SVG/1.1/DTD/svg11.dtd">
<!-- Generated by graphviz version 15.1.0 (20260618.0150)
 -->
<!-- Title: G Pages: 1 -->
<svg width="975pt" height="295pt"
 viewBox="0.00 0.00 975.00 295.00" xmlns="http://www.w3.org/2000/svg" xmlns:xlink="http://www.w3.org/1999/xlink">
<g id="graph0" class="graph" transform="scale(1 1) rotate(0) translate(4 291)">
<title>G</title>
<polygon fill="white" stroke="none" points="-4,4 -4,-291 970.75,-291 970.75,4 -4,4"/>
<!-- data.aws_ami.ubuntu -->
<g id="node1" class="node">
<title>data.aws_ami.ubuntu</title>
<polygon fill="none" stroke="black" points="468.5,-287 320.5,-287 320.5,-251 468.5,-251 468.5,-287"/>
<text xml:space="preserve" text-anchor="middle" x="394.5" y="-264.32" font-family="sans-serif" font-size="14.00">data.aws_ami.ubuntu</text>
</g>
<!-- aws_db_instance.rds_db -->
<g id="node2" class="node">
<title>aws_db_instance.rds_db</title>
<polygon fill="none" stroke="black" points="477.5,-233 311.5,-233 311.5,-197 477.5,-197 477.5,-233"/>
<text xml:space="preserve" text-anchor="middle" x="394.5" y="-210.32" font-family="sans-serif" font-size="14.00">aws_db_instance.rds_db</text>
</g>
<!-- aws_security_group.rds_sg -->
<g id="node5" class="node">
<title>aws_security_group.rds_sg</title>
<polygon fill="none" stroke="black" points="181.75,-71 0,-71 0,-35 181.75,-35 181.75,-71"/>
<text xml:space="preserve" text-anchor="middle" x="90.88" y="-48.33" font-family="sans-serif" font-size="14.00">aws_security_group.rds_sg</text>
</g>
<!-- aws_db_instance.rds_db&#45;&gt;aws_security_group.rds_sg -->
<g id="edge1" class="edge">
<title>aws_db_instance.rds_db&#45;&gt;aws_security_group.rds_sg</title>
<path fill="none" stroke="black" d="M311.22,-213.62C280.46,-210.28 246.13,-203.01 217.75,-188 169.95,-162.72 130.48,-112.12 109.12,-80.55"/>
<polygon fill="black" stroke="black" points="112.1,-78.71 103.67,-72.29 106.25,-82.57 112.1,-78.71"/>
</g>
<!-- aws_instance.webserver -->
<g id="node3" class="node">
<title>aws_instance.webserver</title>
<polygon fill="none" stroke="black" points="870,-227 704,-227 704,-191 870,-191 870,-227"/>
<text xml:space="preserve" text-anchor="middle" x="787" y="-204.32" font-family="sans-serif" font-size="14.00">aws_instance.webserver</text>
</g>
<!-- aws_instance.webserver&#45;&gt;data.aws_ami.ubuntu -->
<g id="edge2" class="edge">
<title>aws_instance.webserver&#45;&gt;data.aws_ami.ubuntu</title>
<path fill="none" stroke="black" d="M703.66,-221.65C637.98,-231.74 546.33,-245.82 480.07,-256.01"/>
<polygon fill="black" stroke="black" points="479.69,-252.52 470.33,-257.5 480.75,-259.44 479.69,-252.52"/>
</g>
<!-- aws_instance.webserver&#45;&gt;aws_db_instance.rds_db -->
<g id="edge3" class="edge">
<title>aws_instance.webserver&#45;&gt;aws_db_instance.rds_db</title>
<path fill="none" stroke="black" d="M703.66,-210.27C640.84,-211.23 554.25,-212.56 488.85,-213.57"/>
<polygon fill="black" stroke="black" points="489.18,-210.06 479.24,-213.71 489.29,-217.06 489.18,-210.06"/>
</g>
<!-- aws_key_pair.deployer -->
<g id="node4" class="node">
<title>aws_key_pair.deployer</title>
<polygon fill="none" stroke="black" points="471.12,-179 317.88,-179 317.88,-143 471.12,-143 471.12,-179"/>
<text xml:space="preserve" text-anchor="middle" x="394.5" y="-156.32" font-family="sans-serif" font-size="14.00">aws_key_pair.deployer</text>
</g>
<!-- aws_instance.webserver&#45;&gt;aws_key_pair.deployer -->
<g id="edge4" class="edge">
<title>aws_instance.webserver&#45;&gt;aws_key_pair.deployer</title>
<path fill="none" stroke="black" d="M703.66,-198.88C638.83,-190.91 548.69,-179.83 482.64,-171.71"/>
<polygon fill="black" stroke="black" points="483.29,-168.26 472.94,-170.52 482.43,-175.21 483.29,-168.26"/>
</g>
<!-- aws_security_group.webserver_sg -->
<g id="node6" class="node">
<title>aws_security_group.webserver_sg</title>
<polygon fill="none" stroke="black" points="507.88,-125 281.12,-125 281.12,-89 507.88,-89 507.88,-125"/>
<text xml:space="preserve" text-anchor="middle" x="394.5" y="-102.33" font-family="sans-serif" font-size="14.00">aws_security_group.webserver_sg</text>
</g>
<!-- aws_instance.webserver&#45;&gt;aws_security_group.webserver_sg -->
<g id="edge5" class="edge">
<title>aws_instance.webserver&#45;&gt;aws_security_group.webserver_sg</title>
<path fill="none" stroke="black" d="M703.67,-205.48C671.87,-201.22 636.24,-192.69 607.25,-176 585.94,-163.73 592.74,-145.94 571.25,-134 555.31,-125.14 537.37,-118.93 519.2,-114.62"/>
<polygon fill="black" stroke="black" points="520.17,-111.25 509.66,-112.56 518.69,-118.09 520.17,-111.25"/>
</g>
<!-- aws_vpc_security_group_egress_rule.allow_egress -->
<g id="node7" class="node">
<title>aws_vpc_security_group_egress_rule.allow_egress</title>
<polygon fill="none" stroke="black" points="950.62,-167 623.38,-167 623.38,-131 950.62,-131 950.62,-167"/>
<text xml:space="preserve" text-anchor="middle" x="787" y="-144.32" font-family="sans-serif" font-size="14.00">aws_vpc_security_group_egress_rule.allow_egress</text>
</g>
<!-- aws_vpc_security_group_egress_rule.allow_egress&#45;&gt;aws_security_group.webserver_sg -->
<g id="edge6" class="edge">
<title>aws_vpc_security_group_egress_rule.allow_egress&#45;&gt;aws_security_group.webserver_sg</title>
<path fill="none" stroke="black" d="M622.94,-131.46C588.27,-127.73 552.21,-123.86 519.3,-120.31"/>
<polygon fill="black" stroke="black" points="520.08,-116.88 509.77,-119.29 519.33,-123.84 520.08,-116.88"/>
</g>
<!-- aws_vpc_security_group_egress_rule.allow_rds_egress -->
<g id="node8" class="node">
<title>aws_vpc_security_group_egress_rule.allow_rds_egress</title>
<polygon fill="none" stroke="black" points="571.25,-71 217.75,-71 217.75,-35 571.25,-35 571.25,-71"/>
<text xml:space="preserve" text-anchor="middle" x="394.5" y="-48.33" font-family="sans-serif" font-size="14.00">aws_vpc_security_group_egress_rule.allow_rds_egress</text>
</g>
<!-- aws_vpc_security_group_egress_rule.allow_rds_egress&#45;&gt;aws_security_group.rds_sg -->
<g id="edge7" class="edge">
<title>aws_vpc_security_group_egress_rule.allow_rds_egress&#45;&gt;aws_security_group.rds_sg</title>
<path fill="none" stroke="black" d="M217.61,-53C209.44,-53 201.38,-53 193.52,-53"/>
<polygon fill="black" stroke="black" points="193.67,-49.5 183.67,-53 193.67,-56.5 193.67,-49.5"/>
</g>
<!-- aws_vpc_security_group_ingress_rule.allow_ingress -->
<g id="node9" class="node">
<title>aws_vpc_security_group_ingress_rule.allow_ingress</title>
<polygon fill="none" stroke="black" points="953.62,-113 620.38,-113 620.38,-77 953.62,-77 953.62,-113"/>
<text xml:space="preserve" text-anchor="middle" x="787" y="-90.33" font-family="sans-serif" font-size="14.00">aws_vpc_security_group_ingress_rule.allow_ingress</text>
</g>
<!-- aws_vpc_security_group_ingress_rule.allow_ingress&#45;&gt;aws_security_group.webserver_sg -->
<g id="edge8" class="edge">
<title>aws_vpc_security_group_ingress_rule.allow_ingress&#45;&gt;aws_security_group.webserver_sg</title>
<path fill="none" stroke="black" d="M620.11,-100.1C586.38,-101.13 551.46,-102.21 519.49,-103.19"/>
<polygon fill="black" stroke="black" points="519.71,-99.68 509.83,-103.49 519.93,-106.68 519.71,-99.68"/>
</g>
<!-- aws_vpc_security_group_ingress_rule.allow_rds_ingress -->
<g id="node10" class="node">
<title>aws_vpc_security_group_ingress_rule.allow_rds_ingress</title>
<polygon fill="none" stroke="black" points="966.75,-36 607.25,-36 607.25,0 966.75,0 966.75,-36"/>
<text xml:space="preserve" text-anchor="middle" x="787" y="-13.32" font-family="sans-serif" font-size="14.00">aws_vpc_security_group_ingress_rule.allow_rds_ingress</text>
</g>
<!-- aws_vpc_security_group_ingress_rule.allow_rds_ingress&#45;&gt;aws_security_group.rds_sg -->
<g id="edge9" class="edge">
<title>aws_vpc_security_group_ingress_rule.allow_rds_ingress&#45;&gt;aws_security_group.rds_sg</title>
<path fill="none" stroke="black" d="M606.91,-11.51C494.75,-9.68 347.41,-11.33 217.75,-26 204.56,-27.49 190.72,-29.74 177.24,-32.32"/>
<polygon fill="black" stroke="black" points="176.63,-28.88 167.51,-34.26 178,-35.74 176.63,-28.88"/>
</g>
<!-- aws_vpc_security_group_ingress_rule.allow_rds_ingress&#45;&gt;aws_security_group.webserver_sg -->
<g id="edge10" class="edge">
<title>aws_vpc_security_group_ingress_rule.allow_rds_ingress&#45;&gt;aws_security_group.webserver_sg</title>
<path fill="none" stroke="black" d="M717.02,-36.45C683.73,-45.56 643.3,-56.96 607.25,-68 591.12,-72.94 587.64,-76.04 571.25,-80 554.48,-84.05 536.65,-87.62 519.03,-90.73"/>
<polygon fill="black" stroke="black" points="518.85,-87.21 509.58,-92.35 520.03,-94.11 518.85,-87.21"/>
</g>
</g>
</svg>
